<?xml version="1.0" encoding="utf-8"?>
<!-- Generator: Adobe Illustrator 16.0.0, SVG Export Plug-In . SVG Version: 6.00 Build 0)  -->
<!DOCTYPE svg PUBLIC "-//W3C//DTD SVG 1.1//EN" "http://www.w3.org/Graphics/SVG/1.1/DTD/svg11.dtd">
<svg version="1.1" id="Layer_1" xmlns="http://www.w3.org/2000/svg" xmlns:xlink="http://www.w3.org/1999/xlink" x="0px" y="0px"
	 width="540px" height="330px" viewBox="0 0 540 330" enable-background="new 0 0 540 330" xml:space="preserve">
<path opacity="0.2" d="M539.566,2.933c-0.747-1.721-2.461-2.929-4.453-2.929H4.849c-2.679,0-4.858,2.18-4.858,4.858v320.237
	c0,2.68,2.18,4.858,4.858,4.858h530.264c2.68,0,4.857-2.179,4.857-4.858V27.209V4.862C539.971,4.013,539.844,3.388,539.566,2.933z
	 M80.04,5.958h446.984V23.01H80.04V5.958z M60.109,8.042c3.733,0,6.76,3.026,6.76,6.76c0,3.733-3.027,6.759-6.76,6.759
	s-6.76-3.026-6.76-6.759C53.349,11.067,56.376,8.042,60.109,8.042z M38.733,8.042c3.733,0,6.76,3.026,6.76,6.76
	c0,3.733-3.027,6.759-6.76,6.759s-6.759-3.026-6.759-6.759C31.974,11.067,35,8.042,38.733,8.042z M17.357,8.042
	c3.733,0,6.76,3.026,6.76,6.76c0,3.733-3.027,6.759-6.76,6.759s-6.759-3.026-6.759-6.759C10.598,11.067,13.624,8.042,17.357,8.042z
	 M538.027,325.099c0,1.607-1.307,2.915-2.914,2.915H4.849c-1.607,0-2.915-1.308-2.915-2.915V26.959h536.093V325.099z"/>
</svg>
