<?xml version="1.0" encoding="utf-8"?>
<!-- Generator: Adobe Illustrator 16.0.0, SVG Export Plug-In . SVG Version: 6.00 Build 0)  -->
<!DOCTYPE svg PUBLIC "-//W3C//DTD SVG 1.1//EN" "http://www.w3.org/Graphics/SVG/1.1/DTD/svg11.dtd">
<svg version="1.1" id="Layer_1" xmlns="http://www.w3.org/2000/svg" xmlns:xlink="http://www.w3.org/1999/xlink" x="0px" y="0px"
	 width="508.745px" height="485.061px" viewBox="1.627 13.47 508.745 485.061" enable-background="new 1.627 13.47 508.745 485.061"
	 xml:space="preserve">
<path fill-rule="evenodd" clip-rule="evenodd" fill="#CCCCC7" d="M506.721,263.309c-2.568-12.851-12.845-20.559-12.845-35.124
	c0-14.559-0.858-71.094-0.858-76.234s-21.42-2.572-32.552-11.991c-11.135-9.425-35.119-1.714-35.119-1.714s-22.27,7.707-29.123,2.57
	c-6.853-5.142-22.272-4.283-26.555-4.283c-4.281,0-22.269,1.999-27.124-1.712c-4.853-3.712-24.84-9.708-30.552-9.708
	c-5.709,0-17.983-9.707-20.842-13.707c-2.858-3.996-17.701-0.569-19.703-0.569c-1.998,0-8.851-0.569-8.851-6.566
	c0-5.999-1.429-62.814-1.429-76.808c0-13.993-4.567-12.849-4.567-12.849s-97.936-1.144-105.931-1.144
	c-7.993,0-7.993,6.568-7.993,6.568s0,171.317,0,189.019c0,17.704-5.997,16.846-5.997,16.846L4.198,226.474
	c0,0-2.57,0.857-2.57,3.999c0,3.138,5.425,2.283,9.421,8.278c3.998,5.997,27.125,29.696,36.548,35.69
	c9.423,5.996,28.267,20.845,27.98,31.694c-0.284,10.851,15.421,34.549,38.834,48.255c23.413,13.707,28.552,13.421,38.259-9.994
	c9.708-23.415,19.987-20.273,39.118-18.27c19.129,1.995,40.544,25.124,49.11,46.54c8.566,21.412,17.419,28.266,22.555,29.69
	c5.146,1.427,13.994,25.986,15.992,35.406c1.995,9.426,14.273,31.412,17.699,35.693c3.428,4.279,21.702,15.702,24.555,17.132
	c2.856,1.427,14.563,0.284,17.705,0.284s11.993,1.429,15.131,5.992c3.146,4.569,15.992-1.708,15.992-1.708l3.708-6.113
	c0,0-3.643,0.778-9.363-6.243c-5.718-7.016-6.496-22.618-7.017-33.017c-0.521-10.399,14.555-43.16,31.456-57.714
	c16.898-14.562,48.356-23.14,56.415-27.562c8.057-4.417,14.034-9.619,18.46-17.681c4.415-8.057,25.403-10.71,25.403-10.71
	s9.421-1.716,9.421-7.708c0-5.999,10.279-19.704,11.139-26.557C511.007,294.999,509.29,276.154,506.721,263.309z M65.546,233.953
	c2.433,0.327,3.177,2.456,2.775,5.704C65.878,239.332,65.149,237.198,65.546,233.953z M27.053,244.02
	c-5.309,0.116-15.041-1.031-5.595-1.458c3.187-0.114,8.889,0.13,13.946,0C33.846,245.229,29.532,243.969,27.053,244.02z
	 M38.193,244.02c1.936-3.275,9.703-0.56,13.965-1.458C50.234,245.839,42.427,243.122,38.193,244.02z M53.547,244.02
	c0.03-1.383,1.719-1.108,2.771-1.458c1.406,0,2.789,0,4.212,0C60.75,245.671,55.588,243.223,53.547,244.02z M63.319,244.02
	c0.03-1.383,1.705-1.108,2.781-1.458c1.377,0,2.79,0,4.172,0C70.519,245.671,65.334,243.223,63.319,244.02z M75.872,242.562
	c0.925,0,1.85,0,2.775,0C78.944,246.599,68.246,242.192,75.872,242.562z M130.748,282.08c-1.034,0.447-2.342-4.559-1.422-5.48
	C129.954,275.985,133.342,280.235,130.748,282.08z M160.269,202.483c0-1.425,0-2.878,0-4.298
	C164.335,196.098,164.335,204.606,160.269,202.483z M183.488,75.016c1.885,0,3.76,0,5.605,0
	C189.385,79.713,182.533,80.697,183.488,75.016z M217.973,40.921c-1.42-4.299,3.088-2.529,5.542-2.871
	C223.182,40.588,221.151,41.328,217.973,40.921z M234.496,210.534c-0.168,0.906-0.528,2.152-1.517,2.461
	c-0.545,0.17-2.208-0.055-1.856-0.971c0.229-0.601-0.595-1.453-2.166-1.494c-2.618-0.07,0.093-4.694-1.133-6.113
	c-1.075-1.244,6.849-0.661,6.852-1.468C234.668,205.443,234.958,208.062,234.496,210.534z M248.147,238.279c-0.93,0-1.845,0-2.767,0
	c0-1.425,0-2.878,0-4.298c1.095,0.754,2.253,1.508,4.159,1.42C249.253,236.597,248.147,236.854,248.147,238.279z M256.999,71.209
	c-3.366-0.838-10.144,1.792-11.154-1.417c-0.87-5.638,7.641-1.676,11.154-2.873C256.999,68.371,256.999,69.792,256.999,71.209z
	 M261.412,136.625c-0.24-4.017,3.91-4.686,5.566-2.873C266.63,136.26,264.587,137.004,261.412,136.625z M279.325,293.195
	c-3.515-1.211-12.016,2.76-11.172-2.915c-0.844-5.595,7.657-1.619,11.172-2.825C279.325,289.341,279.325,291.314,279.325,293.195z
	 M278.862,265.494c0.337-3.346,3.705-3.284,5.554-1.438C284.025,267.371,280.698,267.349,278.862,265.494z M323.911,316.095
	c-3.435-1.206-11.945,2.761-11.166-2.837c-0.779-5.664,7.731-1.693,11.166-2.908C323.911,312.307,323.911,314.198,323.911,316.095z
	 M331.993,368.205c0-0.949,0-1.891,0-2.836c1.197,0.223,1.322-0.548,1.417-1.417C336.126,363.331,335.438,370.428,331.993,368.205z
	 M336.21,405.417c3.916-0.176,4.027,3.515,4.158,7.154C337.623,411.599,336.678,408.794,336.21,405.417z M412.755,168.129
	c1.088,0.251,1.388,1.413,2.781,1.413C415.556,172.652,408.744,170.985,412.755,168.129z M476.248,244.02
	c0.172-0.407,2.946-2.644,4.163-1.458C481.406,243.627,474.721,246.802,476.248,244.02z M462.041,230.177
	c0.563-2.182-4.524-2.466-1.382-5.749c4.454,1,2.645,4.791,4.152,5.749c-0.272,2.499-2.378,3.275-5.541,2.863
	C457.562,230.255,461.905,230.778,462.041,230.177z M460.659,302.031c-1.389,0-2.775,0-4.173,0
	C454.405,297.827,462.663,297.827,460.659,302.031z M464.508,282.783c-1.165,0.199-1.421,1.578-2.85,1.463
	c-3.64-0.312-7.632-3.336-11.16-4.308c3.128-8.641,10.09,1.262,15.402,2.845C465.675,285.015,464.333,282.794,464.508,282.783z
	 M470.437,273.135c2.896-7.204,5.308,3.043,9.768,2.844c-0.764,1.171-1.506,2.371-1.451,4.317c-3.424,0.177-4.271-2.256-6.938-2.854
	C472.674,276.111,475.042,272.164,470.437,273.135z M477.364,288.867c2.097-2.167,7.206-0.11,7.004,4.328
	C480.371,293.433,476.755,293.337,477.364,288.867z"/>
</svg>
